<?xml version="1.0" standalone="no"?>
<!DOCTYPE svg PUBLIC "-//W3C//DTD SVG 20010904//EN"
 "http://www.w3.org/TR/2001/REC-SVG-20010904/DTD/svg10.dtd">
<svg version="1.0" xmlns="http://www.w3.org/2000/svg"
 width="2958.000000pt" height="2958.000000pt" viewBox="0 0 2958.000000 2958.000000"
 preserveAspectRatio="xMidYMid meet">
<metadata>
Created by potrace 1.14, written by Peter Selinger 2001-2017
</metadata>
<g transform="translate(0.000000,2958.000000) scale(0.100000,-0.100000)"
fill="#000000" stroke="none">
<path d="M12319 27052 c-68 -69 -973 -963 -1566 -1548 -121 -121 -510 -505
-863 -854 -353 -349 -744 -736 -868 -859 -125 -123 -516 -509 -870 -859 -353
-349 -741 -733 -861 -851 -121 -119 -513 -507 -873 -862 -359 -356 -753 -745
-875 -865 -121 -121 -511 -505 -865 -856 -353 -350 -743 -734 -865 -855 -121
-120 -514 -508 -873 -863 -358 -355 -750 -742 -870 -860 -120 -118 -508 -501
-862 -851 -353 -351 -770 -762 -926 -916 l-283 -279 222 -224 c267 -271 1342
-1359 1930 -1954 235 -237 527 -532 649 -656 122 -124 509 -515 860 -870 351
-355 740 -748 865 -875 125 -126 512 -518 860 -870 348 -352 726 -734 840
-850 114 -115 496 -502 850 -860 354 -357 736 -744 850 -860 114 -115 501
-507 860 -870 359 -363 748 -757 865 -875 117 -118 492 -498 834 -843 341
-346 728 -737 859 -870 491 -498 908 -917 912 -917 2 0 10 6 17 14 107 112
147 157 219 243 219 264 398 557 515 843 20 47 42 99 49 116 37 80 125 376
156 519 7 33 13 65 15 70 17 82 34 198 51 365 10 92 10 519 0 615 -15 144 -16
153 -32 250 -73 452 -234 883 -473 1275 -26 41 -49 77 -52 80 -3 3 -27 39 -55
80 -52 78 -192 257 -254 324 -50 55 -546 558 -1615 1639 -810 820 -1002 1014
-1056 1073 -97 105 -211 247 -280 349 -18 28 -36 52 -39 55 -3 3 -11 14 -18
25 -6 11 -34 56 -61 100 -72 117 -212 380 -212 399 0 2 -14 35 -31 72 -17 37
-32 72 -34 78 -2 11 -5 19 -36 101 -27 72 -84 266 -107 365 -29 124 -35 152
-52 265 -7 44 -14 88 -16 98 -3 17 -10 90 -20 197 -6 71 -7 451 0 495 3 22 8
70 11 107 3 37 7 75 9 85 2 10 7 41 10 68 9 68 14 97 32 185 9 41 17 82 19 90
23 114 136 472 157 498 6 6 8 12 5 12 -3 0 8 30 25 68 189 422 387 723 687
1042 l70 75 278 -282 c153 -154 571 -577 929 -940 359 -362 747 -755 864 -873
117 -118 492 -498 834 -843 604 -611 769 -778 1599 -1619 l397 -403 304 300
c167 165 500 494 739 730 567 561 1671 1653 1957 1935 288 284 1456 1439 1737
1718 118 116 221 212 228 212 7 0 15 -4 17 -9 2 -5 21 -29 43 -53 246 -266
425 -526 579 -841 91 -185 117 -250 178 -427 35 -101 98 -333 112 -415 22
-120 37 -208 42 -251 3 -27 7 -60 9 -74 23 -152 23 -532 -1 -750 -12 -115 -38
-267 -69 -410 -30 -137 -108 -380 -171 -534 -44 -108 -151 -328 -192 -396 -12
-19 -29 -48 -38 -65 -29 -51 -146 -227 -194 -290 -171 -226 -191 -247 -1065
-1110 -1937 -1914 -1943 -1919 -2059 -2075 -23 -30 -46 -60 -52 -67 -17 -18
-166 -241 -199 -298 -16 -27 -37 -63 -47 -80 -15 -26 -134 -266 -159 -320 -22
-49 -99 -258 -124 -335 -28 -89 -89 -332 -99 -391 -42 -265 -43 -274 -53 -424
-23 -364 10 -738 97 -1087 101 -407 284 -805 532 -1158 45 -63 84 -117 87
-120 3 -3 24 -27 45 -55 45 -57 93 -112 179 -204 l59 -64 87 86 c47 47 178
176 291 287 113 111 507 501 875 865 369 365 760 752 870 860 110 109 497 491
860 850 363 359 757 749 876 866 120 118 509 503 865 855 357 353 750 742 874
864 124 122 513 507 865 855 352 348 737 728 855 845 118 117 511 505 873 863
363 359 759 751 882 872 123 121 513 506 867 856 353 350 744 737 868 859 124
122 518 512 876 866 358 354 662 655 677 668 30 28 33 41 15 60 -7 7 -305 308
-662 669 -357 361 -741 750 -853 864 -113 115 -498 504 -857 867 -358 362
-750 758 -871 881 -121 122 -504 510 -851 861 -348 352 -735 743 -860 871
-126 127 -513 519 -860 870 -348 351 -727 735 -844 853 -117 118 -504 510
-860 870 -356 360 -757 765 -890 900 -133 135 -521 528 -863 874 -342 346
-719 727 -837 846 -118 120 -489 495 -825 835 -335 339 -763 771 -950 961
-187 189 -345 344 -351 344 -10 0 -106 -100 -194 -200 -108 -123 -261 -338
-357 -500 -136 -230 -260 -511 -329 -745 -47 -159 -45 -150 -74 -280 -23 -108
-36 -182 -55 -320 -27 -199 -28 -710 -1 -851 2 -10 7 -41 10 -69 15 -121 59
-327 98 -460 11 -38 27 -92 35 -120 8 -27 18 -59 22 -70 5 -11 14 -33 21 -50
6 -16 19 -50 27 -75 21 -63 34 -93 129 -285 126 -257 262 -465 449 -688 107
-127 152 -173 1206 -1239 1433 -1448 1535 -1552 1619 -1653 124 -148 264 -343
324 -450 9 -16 33 -57 52 -90 194 -335 358 -813 410 -1200 3 -27 8 -59 10 -70
2 -10 6 -51 10 -90 3 -38 7 -90 10 -115 6 -64 6 -404 -1 -475 -13 -145 -21
-209 -41 -337 -32 -206 -103 -462 -186 -677 -40 -106 -169 -376 -228 -481 -62
-109 -220 -337 -311 -450 -94 -116 -246 -280 -260 -280 -4 0 -43 35 -86 79
-179 180 -1384 1400 -1578 1596 -115 117 -503 509 -861 872 -359 362 -746 753
-860 869 -115 117 -499 505 -854 864 -355 359 -648 657 -652 663 -4 6 -32 -15
-71 -54 -74 -74 -1247 -1234 -1567 -1549 -118 -117 -512 -506 -875 -865 -363
-359 -759 -751 -880 -870 -121 -119 -508 -502 -860 -850 -352 -348 -658 -649
-679 -670 l-39 -38 -35 39 c-19 21 -64 71 -99 111 -93 103 -201 245 -293 384
-44 66 -80 122 -80 125 0 2 -11 22 -25 44 -59 93 -223 434 -241 500 -2 8 -24
74 -48 145 -39 113 -86 280 -101 356 -25 127 -42 228 -50 295 -3 28 -7 60 -10
72 -23 119 -23 618 -1 739 2 10 7 50 10 88 4 39 9 77 11 85 2 8 7 35 10 60 4
24 8 47 10 50 2 3 6 23 9 45 4 22 11 56 16 75 5 19 11 46 14 60 5 23 22 90 30
115 2 6 6 24 11 40 32 127 149 424 227 579 128 255 331 556 507 751 53 58 486
490 1294 1289 1238 1224 1514 1501 1597 1606 45 58 90 114 99 125 43 52 223
334 230 360 1 6 8 17 15 25 17 19 120 225 152 305 14 33 31 74 39 90 55 121
168 510 190 655 4 25 9 52 10 60 1 8 6 35 10 60 3 25 9 58 11 73 31 195 36
619 9 827 -2 19 -7 60 -11 90 -4 30 -8 64 -10 75 -3 11 -7 35 -10 54 -7 41
-12 68 -19 101 -3 14 -7 34 -9 45 -3 11 -12 49 -21 85 -8 36 -18 74 -20 85
-30 134 -177 521 -244 645 -4 8 -27 51 -51 95 -112 209 -234 389 -395 584 -31
39 -106 121 -155 173 l-45 47 -76 -77z"/>
</g>
</svg>
